<?xml version="1.0" encoding="utf-8"?>
<!-- Generator: Adobe Illustrator 15.1.0, SVG Export Plug-In . SVG Version: 6.00 Build 0)  -->
<!DOCTYPE svg PUBLIC "-//W3C//DTD SVG 1.1//EN" "http://www.w3.org/Graphics/SVG/1.1/DTD/svg11.dtd">
<svg version="1.1" id="Ebene_1" xmlns="http://www.w3.org/2000/svg" xmlns:xlink="http://www.w3.org/1999/xlink" x="0px" y="0px"
	 width="357.352px" height="73.704px" viewBox="0 0 357.352 73.704" enable-background="new 0 0 357.352 73.704"
	 xml:space="preserve">
<g>
	<path fill="#5C6971" d="M219.468,35.625c0,1.191-0.213,2.292-0.639,3.297c-0.425,1.009-1.026,1.873-1.808,2.597
		c-0.78,0.724-1.717,1.291-2.81,1.701c-1.093,0.411-2.305,0.616-3.638,0.616c-0.766,0-1.532-0.062-2.298-0.19
		c-0.768-0.127-1.477-0.283-2.128-0.468c-0.652-0.186-1.213-0.368-1.681-0.555c-0.469-0.184-0.803-0.332-1-0.445l0.894-2.725
		c0.17,0.114,0.475,0.271,0.915,0.469c0.438,0.199,0.95,0.397,1.532,0.597c0.581,0.199,1.205,0.369,1.872,0.51
		c0.666,0.144,1.298,0.214,1.894,0.214c0.879,0,1.666-0.135,2.361-0.404c0.694-0.27,1.291-0.639,1.787-1.105
		c0.495-0.469,0.871-1.014,1.127-1.639c0.256-0.623,0.384-1.276,0.384-1.957c0-0.964-0.307-1.83-0.915-2.596
		c-0.61-0.766-1.383-1.489-2.318-2.17c-0.937-0.681-1.937-1.348-3-2s-2.063-1.347-3-2.085c-0.936-0.737-1.709-1.538-2.318-2.404
		c-0.61-0.865-0.915-1.851-0.915-2.957c0-1.078,0.198-2.07,0.596-2.979c0.396-0.907,0.951-1.694,1.66-2.361
		c0.709-0.666,1.56-1.191,2.553-1.574c0.992-0.384,2.085-0.575,3.276-0.575c0.681,0,1.376,0.064,2.085,0.191
		c0.709,0.128,1.375,0.277,2,0.447c0.623,0.17,1.154,0.341,1.596,0.511c0.439,0.17,0.744,0.298,0.914,0.383l-0.893,2.638
		c-0.144-0.112-0.435-0.262-0.873-0.446c-0.439-0.184-0.937-0.361-1.488-0.532c-0.554-0.17-1.129-0.319-1.726-0.446
		c-0.596-0.128-1.135-0.191-1.615-0.191c-1.589,0-2.803,0.397-3.639,1.191c-0.838,0.794-1.256,1.872-1.256,3.233
		c0,0.852,0.312,1.624,0.938,2.319c0.625,0.695,1.396,1.376,2.318,2.042c0.921,0.667,1.921,1.334,2.999,2
		c1.078,0.667,2.077,1.383,3,2.148c0.921,0.767,1.694,1.617,2.319,2.554C219.155,33.413,219.468,34.462,219.468,35.625z"/>
	<path fill="#5C6971" d="M233.364,43.391c-0.255,0.07-0.539,0.134-0.851,0.191c-0.312,0.057-0.646,0.111-1,0.17
		c-0.354,0.057-0.675,0.084-0.957,0.084c-0.852,0-1.567-0.127-2.149-0.383c-0.581-0.254-1.049-0.602-1.404-1.043
		c-0.354-0.438-0.608-0.94-0.766-1.51c-0.156-0.566-0.234-1.148-0.234-1.744V24.392h-3.573v-2.425h3.573V16.18h2.938v5.787h4.212
		v2.425h-4.212v14.467c0,0.597,0.134,1.17,0.404,1.724c0.27,0.555,0.729,0.83,1.383,0.83c0.396,0,0.837-0.078,1.318-0.233
		c0.482-0.155,0.81-0.29,0.979-0.404l0.894,2.427C233.804,43.256,233.62,43.319,233.364,43.391z"/>
	<path fill="#5C6971" d="M250.784,43.327v-3.021c-0.085,0.144-0.276,0.411-0.574,0.809s-0.688,0.796-1.17,1.191
		c-0.481,0.397-1.043,0.752-1.681,1.063c-0.639,0.312-1.341,0.467-2.106,0.467c-1.164,0-2.164-0.205-3-0.616
		c-0.837-0.41-1.524-0.949-2.062-1.616c-0.539-0.667-0.938-1.439-1.191-2.318c-0.255-0.88-0.383-1.787-0.383-2.724V21.967h2.938
		v14.339c0,0.653,0.076,1.284,0.232,1.894c0.155,0.61,0.39,1.149,0.702,1.617c0.312,0.469,0.723,0.852,1.234,1.148
		c0.51,0.298,1.134,0.447,1.87,0.447c0.683,0,1.32-0.178,1.916-0.533c0.597-0.354,1.119-0.758,1.574-1.213
		c0.453-0.453,0.814-0.906,1.084-1.36c0.271-0.453,0.418-0.767,0.447-0.937V21.967h2.936v21.36H250.784z"/>
	<path fill="#5C6971" d="M269.604,43.391c-0.256,0.07-0.539,0.134-0.853,0.191c-0.312,0.057-0.646,0.111-1,0.17
		c-0.354,0.057-0.674,0.084-0.957,0.084c-0.852,0-1.567-0.127-2.147-0.383c-0.582-0.254-1.051-0.602-1.404-1.043
		c-0.354-0.438-0.611-0.94-0.766-1.51c-0.156-0.566-0.234-1.148-0.234-1.744V24.392h-3.574v-2.425h3.574V16.18h2.937v5.787h4.213
		v2.425h-4.213v14.467c0,0.597,0.135,1.17,0.403,1.724c0.27,0.555,0.73,0.83,1.383,0.83c0.396,0,0.837-0.078,1.319-0.233
		c0.481-0.155,0.809-0.29,0.979-0.404l0.894,2.427C270.044,43.256,269.859,43.319,269.604,43.391z"/>
	<path fill="#5C6971" d="M284.743,43.391c-0.256,0.07-0.539,0.134-0.852,0.191c-0.312,0.057-0.646,0.111-1,0.17
		c-0.354,0.057-0.675,0.084-0.957,0.084c-0.852,0-1.567-0.127-2.148-0.383c-0.582-0.254-1.05-0.602-1.404-1.043
		c-0.354-0.438-0.609-0.94-0.766-1.51c-0.156-0.566-0.234-1.148-0.234-1.744V24.392h-3.573v-2.425h3.573V16.18h2.937v5.787h4.213
		v2.425h-4.213v14.467c0,0.597,0.135,1.17,0.404,1.724c0.269,0.555,0.729,0.83,1.383,0.83c0.396,0,0.837-0.078,1.319-0.233
		c0.481-0.155,0.809-0.29,0.979-0.404l0.893,2.427C285.183,43.256,284.999,43.319,284.743,43.391z"/>
	<path fill="#5C6971" d="M302.555,24.051c0.111,0.143,0.269,0.355,0.468,0.639c0.198,0.284,0.39,0.632,0.574,1.043
		c0.184,0.411,0.348,0.88,0.489,1.403c0.142,0.525,0.213,1.086,0.213,1.682c0,1.078-0.186,2.092-0.554,3.042
		c-0.369,0.95-0.88,1.78-1.532,2.489c-0.651,0.709-1.433,1.27-2.34,1.681c-0.908,0.411-1.887,0.617-2.936,0.617
		c-0.312,0-0.646,0.058-1,0.17c-0.355,0.114-0.688,0.255-1,0.426c-0.312,0.169-0.574,0.376-0.787,0.616
		c-0.213,0.242-0.319,0.49-0.319,0.745c0,0.624,0.29,1.135,0.872,1.532c0.581,0.397,1.326,0.596,2.234,0.596
		c1.162,0,2.283,0.136,3.36,0.404c1.077,0.27,2.027,0.666,2.852,1.19c0.822,0.525,1.475,1.162,1.957,1.914
		c0.481,0.752,0.724,1.609,0.724,2.574c0,0.738-0.213,1.475-0.639,2.213c-0.426,0.737-1.028,1.418-1.81,2.043
		c-0.778,0.623-1.717,1.127-2.808,1.51c-1.093,0.383-2.306,0.574-3.638,0.574c-1.191,0-2.307-0.156-3.341-0.468
		c-1.036-0.312-1.923-0.729-2.659-1.255c-0.738-0.525-1.318-1.148-1.744-1.873c-0.426-0.723-0.639-1.51-0.639-2.361
		c0-0.822,0.219-1.553,0.659-2.191c0.439-0.637,0.957-1.17,1.554-1.596c0.596-0.425,1.205-0.758,1.83-1
		c0.623-0.24,1.133-0.375,1.53-0.402c-0.198-0.028-0.469-0.106-0.809-0.234s-0.674-0.304-1-0.531s-0.61-0.523-0.852-0.894
		c-0.24-0.369-0.361-0.81-0.361-1.319c0-0.341,0.113-0.674,0.341-1c0.227-0.324,0.495-0.617,0.808-0.872
		c0.312-0.256,0.633-0.469,0.958-0.639s0.604-0.283,0.829-0.34c-0.396-0.143-0.85-0.376-1.36-0.703
		c-0.511-0.325-1-0.779-1.469-1.361c-0.468-0.58-0.857-1.305-1.17-2.17c-0.312-0.865-0.468-1.907-0.468-3.127
		c0-0.908,0.191-1.801,0.574-2.682c0.383-0.879,0.907-1.666,1.574-2.361c0.666-0.694,1.446-1.255,2.34-1.681
		c0.895-0.425,1.852-0.638,2.873-0.638c0.651,0,1.269,0.063,1.851,0.191c0.581,0.127,1,0.233,1.255,0.319h6.043v2.084
		L302.555,24.051L302.555,24.051z M302.853,46.815c0-1.105-0.562-2.021-1.682-2.744c-1.121-0.723-2.531-1.085-4.232-1.085
		c-0.71,0-1.398,0.101-2.064,0.298c-0.666,0.198-1.255,0.469-1.766,0.81c-0.51,0.34-0.922,0.743-1.234,1.213
		c-0.312,0.468-0.467,0.971-0.467,1.51s0.134,1.058,0.403,1.554c0.269,0.495,0.646,0.938,1.128,1.319
		c0.481,0.382,1.062,0.688,1.744,0.914c0.682,0.228,1.432,0.34,2.256,0.34c0.851,0,1.631-0.12,2.34-0.36s1.333-0.554,1.872-0.937
		c0.538-0.383,0.958-0.823,1.255-1.319C302.704,47.829,302.853,47.327,302.853,46.815z M301.321,28.817
		c0-1.561-0.391-2.815-1.171-3.767c-0.78-0.949-1.852-1.425-3.212-1.425c-0.683,0-1.299,0.142-1.853,0.425
		c-0.553,0.284-1.014,0.667-1.383,1.149c-0.369,0.482-0.651,1.036-0.852,1.66c-0.198,0.623-0.297,1.275-0.297,1.957
		c0,0.766,0.077,1.496,0.233,2.191c0.154,0.695,0.404,1.297,0.744,1.809c0.34,0.51,0.787,0.914,1.34,1.212
		c0.554,0.298,1.24,0.446,2.064,0.446c0.793,0,1.467-0.176,2.021-0.531c0.555-0.354,1.007-0.801,1.362-1.34
		c0.354-0.539,0.609-1.143,0.766-1.809C301.242,30.13,301.321,29.47,301.321,28.817z"/>
	<path fill="#5C6971" d="M322.161,43.327v-3.021c-0.085,0.17-0.291,0.454-0.617,0.853c-0.325,0.396-0.759,0.793-1.297,1.19
		c-0.539,0.396-1.156,0.743-1.852,1.042c-0.696,0.298-1.439,0.445-2.234,0.445c-1.871,0-3.41-0.523-4.616-1.573
		s-1.808-2.524-1.808-4.425c0-0.907,0.262-1.746,0.787-2.511c0.522-0.766,1.19-1.432,2-2c0.808-0.566,1.687-1.049,2.637-1.446
		c0.951-0.397,1.837-0.681,2.66-0.851l4.17-0.937v-1.404c0-1.39-0.377-2.56-1.127-3.511c-0.752-0.95-1.895-1.426-3.426-1.426
		c-0.454,0-0.965,0.086-1.532,0.256c-0.567,0.17-1.106,0.361-1.616,0.574c-0.512,0.213-0.973,0.426-1.383,0.639
		c-0.412,0.213-0.675,0.361-0.787,0.446l-0.895-2.298c0.112-0.085,0.383-0.227,0.809-0.425c0.426-0.198,0.938-0.411,1.532-0.639
		c0.596-0.227,1.255-0.426,1.979-0.596c0.725-0.17,1.453-0.255,2.191-0.255c2.155,0,3.878,0.603,5.169,1.808
		c1.291,1.206,1.938,2.973,1.938,5.298v14.767H322.161L322.161,43.327z M321.991,32.264l-3.574,0.767
		c-0.596,0.142-1.233,0.354-1.915,0.638c-0.681,0.284-1.298,0.624-1.851,1.021c-0.553,0.398-1.016,0.852-1.383,1.362
		c-0.369,0.511-0.554,1.062-0.554,1.659c0,1.19,0.361,2.127,1.084,2.809c0.725,0.682,1.609,1.021,2.66,1.021
		c0.652,0,1.283-0.136,1.894-0.404c0.609-0.27,1.164-0.609,1.66-1.021c0.495-0.41,0.913-0.852,1.255-1.318
		c0.341-0.467,0.581-0.916,0.724-1.342V32.264z"/>
	<path fill="#5C6971" d="M340.96,24.774c-0.17-0.085-0.426-0.205-0.766-0.361c-0.34-0.155-0.639-0.234-0.895-0.234
		c-0.566,0-1.105,0.164-1.616,0.489c-0.512,0.327-0.964,0.702-1.361,1.128c-0.397,0.426-0.717,0.845-0.958,1.256
		c-0.24,0.411-0.39,0.717-0.446,0.914v15.361h-2.937v-21.36h2.809v2.978c0.058-0.112,0.205-0.361,0.447-0.744
		c0.24-0.383,0.574-0.78,1-1.191c0.426-0.411,0.929-0.772,1.51-1.085c0.582-0.312,1.241-0.468,1.979-0.468
		c0.368,0,0.772,0.07,1.213,0.213c0.438,0.142,0.745,0.283,0.915,0.425L340.96,24.774z"/>
	<path fill="#5C6971" d="M356.798,43.391c-0.256,0.07-0.539,0.134-0.852,0.191c-0.312,0.057-0.646,0.111-1,0.17
		c-0.355,0.057-0.674,0.084-0.957,0.084c-0.852,0-1.568-0.127-2.148-0.383c-0.582-0.254-1.051-0.602-1.403-1.043
		c-0.355-0.438-0.611-0.94-0.767-1.51c-0.155-0.566-0.233-1.148-0.233-1.744V24.392h-3.574v-2.425h3.574V16.18h2.936v5.787h4.213
		v2.425h-4.213v14.467c0,0.597,0.135,1.17,0.404,1.724c0.269,0.555,0.729,0.83,1.383,0.83c0.396,0,0.836-0.078,1.319-0.233
		c0.48-0.155,0.808-0.29,0.979-0.404l0.895,2.427C357.237,43.256,357.053,43.319,356.798,43.391z"/>
</g>
<g>
	<path fill="#5C6971" d="M77.884,67.338c0,0.324-0.063,0.617-0.194,0.877c-0.129,0.26-0.309,0.478-0.535,0.654
		c-0.227,0.176-0.492,0.312-0.795,0.404c-0.303,0.094-0.623,0.141-0.962,0.141h-1.839v-7.213h1.969c0.281,0,0.553,0.037,0.815,0.109
		c0.264,0.072,0.494,0.182,0.691,0.329c0.199,0.147,0.357,0.335,0.478,0.562c0.119,0.228,0.178,0.495,0.178,0.807
		c0,0.193-0.043,0.381-0.129,0.557c-0.087,0.178-0.195,0.336-0.324,0.477c-0.131,0.142-0.272,0.26-0.428,0.356
		c-0.154,0.097-0.306,0.167-0.449,0.21c0.202,0.037,0.396,0.104,0.579,0.201c0.185,0.097,0.347,0.221,0.486,0.373
		c0.142,0.15,0.253,0.326,0.334,0.523C77.843,66.905,77.884,67.116,77.884,67.338z M76.889,64.042c0-0.369-0.126-0.66-0.378-0.877
		c-0.254-0.217-0.58-0.324-0.984-0.324h-1.179v2.498h1.146c0.18,0,0.354-0.032,0.52-0.098c0.166-0.064,0.313-0.154,0.442-0.27
		c0.13-0.115,0.234-0.253,0.314-0.412C76.849,64.401,76.889,64.229,76.889,64.042z M77.062,67.307c0-0.418-0.144-0.747-0.428-0.989
		c-0.283-0.241-0.653-0.362-1.107-0.362h-1.179v2.822h1.179c0.209,0,0.407-0.035,0.595-0.107c0.188-0.072,0.353-0.172,0.492-0.303
		c0.141-0.13,0.251-0.285,0.329-0.466C77.022,67.722,77.062,67.522,77.062,67.307z"/>
	<path fill="#5C6971" d="M82.529,69.415v-0.768c-0.022,0.043-0.074,0.115-0.157,0.217c-0.082,0.102-0.192,0.201-0.33,0.303
		c-0.137,0.103-0.293,0.189-0.47,0.266s-0.366,0.113-0.567,0.113c-0.477,0-0.866-0.133-1.174-0.399
		c-0.307-0.269-0.459-0.644-0.459-1.125c0-0.229,0.066-0.442,0.199-0.64c0.134-0.192,0.303-0.362,0.509-0.508
		c0.205-0.145,0.429-0.266,0.671-0.367c0.24-0.102,0.466-0.174,0.676-0.217l1.06-0.237v-0.355c0-0.354-0.096-0.651-0.286-0.893
		c-0.19-0.242-0.481-0.362-0.87-0.362c-0.115,0-0.246,0.021-0.39,0.064c-0.145,0.043-0.281,0.093-0.411,0.146
		c-0.129,0.056-0.246,0.109-0.353,0.163c-0.104,0.055-0.171,0.092-0.198,0.113l-0.229-0.584c0.028-0.021,0.098-0.059,0.206-0.108
		c0.107-0.05,0.237-0.104,0.39-0.161c0.15-0.058,0.317-0.107,0.503-0.15c0.184-0.045,0.368-0.065,0.558-0.065
		c0.547,0,0.984,0.153,1.312,0.46c0.328,0.307,0.492,0.756,0.492,1.346v3.752h-0.681V69.415z M82.485,66.604l-0.908,0.193
		c-0.149,0.037-0.312,0.091-0.486,0.162c-0.173,0.072-0.329,0.16-0.471,0.26c-0.141,0.102-0.258,0.217-0.352,0.347
		c-0.095,0.13-0.142,0.271-0.142,0.422c0,0.304,0.093,0.54,0.276,0.714s0.409,0.26,0.676,0.26c0.166,0,0.326-0.034,0.481-0.104
		c0.153-0.068,0.295-0.154,0.422-0.26c0.125-0.104,0.231-0.217,0.317-0.335c0.088-0.118,0.148-0.232,0.185-0.341L82.485,66.604
		L82.485,66.604z"/>
	<path fill="#5C6971" d="M88.329,69.415v-0.768c-0.021,0.043-0.072,0.115-0.149,0.217c-0.08,0.102-0.184,0.201-0.31,0.303
		c-0.127,0.103-0.268,0.189-0.422,0.266c-0.155,0.074-0.312,0.113-0.471,0.113c-0.375,0-0.691-0.088-0.951-0.266
		c-0.26-0.176-0.473-0.406-0.639-0.691c-0.166-0.284-0.286-0.604-0.361-0.963c-0.076-0.356-0.113-0.711-0.113-1.064
		c0-0.324,0.048-0.646,0.146-0.968c0.097-0.32,0.234-0.611,0.416-0.871c0.181-0.259,0.397-0.468,0.653-0.627
		c0.257-0.158,0.539-0.237,0.85-0.237c0.166,0,0.321,0.036,0.471,0.107c0.147,0.072,0.279,0.156,0.396,0.255
		c0.115,0.098,0.211,0.194,0.286,0.292c0.075,0.097,0.127,0.175,0.156,0.232v-2.996h0.746v7.666H88.329z M88.286,65.565
		c-0.014-0.057-0.054-0.146-0.119-0.266c-0.063-0.117-0.149-0.238-0.26-0.361c-0.107-0.123-0.234-0.23-0.378-0.324
		c-0.145-0.094-0.303-0.141-0.476-0.141c-0.209,0-0.396,0.055-0.562,0.162s-0.309,0.258-0.428,0.449
		c-0.118,0.19-0.211,0.412-0.275,0.664C85.724,66,85.69,66.271,85.69,66.56c0,0.253,0.022,0.519,0.069,0.8
		c0.048,0.281,0.125,0.537,0.232,0.77c0.109,0.229,0.25,0.42,0.422,0.572c0.174,0.15,0.387,0.228,0.64,0.228
		c0.157,0,0.312-0.043,0.459-0.13c0.147-0.088,0.275-0.188,0.385-0.303c0.106-0.115,0.194-0.229,0.265-0.342
		c0.068-0.111,0.11-0.195,0.124-0.254V65.565z"/>
	<path fill="#5C6971" d="M91.522,66.831c0,0.217,0.026,0.447,0.082,0.691c0.054,0.246,0.139,0.475,0.254,0.688
		s0.263,0.39,0.442,0.529c0.181,0.141,0.396,0.211,0.648,0.211c0.151,0,0.301-0.016,0.449-0.049c0.146-0.031,0.284-0.07,0.41-0.113
		c0.127-0.043,0.235-0.088,0.33-0.135c0.094-0.047,0.17-0.088,0.227-0.125l0.228,0.627c-0.043,0.022-0.116,0.055-0.222,0.098
		c-0.104,0.043-0.229,0.088-0.379,0.131c-0.146,0.044-0.312,0.08-0.497,0.113c-0.184,0.032-0.376,0.049-0.578,0.049
		c-0.426,0-0.774-0.092-1.05-0.275c-0.272-0.184-0.491-0.422-0.653-0.714c-0.163-0.292-0.275-0.612-0.341-0.963
		c-0.063-0.351-0.098-0.693-0.098-1.032c0-0.268,0.043-0.559,0.13-0.876c0.087-0.315,0.214-0.61,0.384-0.881
		s0.379-0.496,0.627-0.677c0.249-0.18,0.539-0.271,0.871-0.271c0.367,0,0.678,0.087,0.93,0.259c0.253,0.174,0.456,0.395,0.611,0.66
		c0.154,0.268,0.268,0.559,0.335,0.876c0.068,0.317,0.104,0.62,0.104,0.908v0.271H91.522z M93.972,65.728
		c-0.048-0.216-0.119-0.418-0.217-0.604c-0.097-0.188-0.226-0.349-0.384-0.48c-0.158-0.135-0.35-0.2-0.573-0.2
		c-0.209,0-0.394,0.063-0.552,0.188c-0.158,0.127-0.288,0.283-0.389,0.471c-0.103,0.188-0.179,0.388-0.232,0.602
		c-0.055,0.211-0.082,0.408-0.082,0.588h2.498C94.042,66.131,94.019,65.944,93.972,65.728z"/>
	<path fill="#5C6971" d="M99.561,69.415v-3.644c0-0.146-0.023-0.294-0.07-0.448c-0.047-0.156-0.114-0.297-0.2-0.422
		c-0.086-0.127-0.195-0.229-0.33-0.309c-0.133-0.08-0.286-0.119-0.459-0.119c-0.166,0-0.326,0.039-0.48,0.119
		c-0.155,0.078-0.292,0.175-0.411,0.287c-0.119,0.111-0.217,0.225-0.292,0.34s-0.117,0.209-0.124,0.281v3.914h-0.746v-5.429h0.713
		v0.757c0.016-0.035,0.062-0.103,0.141-0.199c0.08-0.099,0.186-0.196,0.314-0.297c0.129-0.103,0.277-0.191,0.443-0.271
		c0.166-0.078,0.342-0.118,0.528-0.118c0.289,0,0.541,0.052,0.759,0.157c0.216,0.104,0.395,0.242,0.534,0.416
		c0.142,0.173,0.246,0.369,0.318,0.589s0.108,0.442,0.108,0.665v3.73H99.561L99.561,69.415z"/>
	<path fill="#5C6971" d="M102.005,66.463v-0.67h2.271v0.67H102.005z"/>
	<path fill="#5C6971" d="M111.802,69.415h-0.878l-1.557-6.229l-1.535,6.229h-0.887l-1.666-7.213h0.833l1.309,6.229l1.535-6.229
		h0.876l1.547,6.229l1.297-6.229h0.789L111.802,69.415z"/>
	<path fill="#5C6971" d="M117.86,69.415v-0.768c-0.021,0.037-0.07,0.105-0.146,0.205c-0.074,0.102-0.174,0.203-0.297,0.303
		c-0.123,0.102-0.266,0.191-0.428,0.271c-0.162,0.078-0.34,0.119-0.535,0.119c-0.295,0-0.549-0.053-0.762-0.157
		s-0.388-0.241-0.524-0.411c-0.138-0.17-0.237-0.365-0.304-0.59c-0.064-0.223-0.097-0.453-0.097-0.691v-3.709h0.746v3.645
		c0,0.166,0.021,0.326,0.06,0.48c0.039,0.155,0.1,0.292,0.178,0.411c0.08,0.119,0.186,0.216,0.314,0.292s0.288,0.113,0.476,0.113
		c0.173,0,0.335-0.045,0.487-0.135c0.15-0.09,0.284-0.193,0.398-0.31c0.115-0.116,0.207-0.229,0.276-0.346
		c0.068-0.115,0.105-0.195,0.113-0.238v-3.914h0.746v5.429H117.86L117.86,69.415z M116.249,62.517c0,0.137-0.049,0.254-0.146,0.353
		c-0.098,0.098-0.219,0.146-0.361,0.146c-0.145,0-0.264-0.048-0.357-0.146c-0.093-0.099-0.141-0.216-0.141-0.353
		c0-0.138,0.047-0.254,0.141-0.353c0.095-0.098,0.214-0.146,0.357-0.146c0.145,0,0.265,0.049,0.361,0.146
		C116.2,62.263,116.249,62.379,116.249,62.517z M118.108,62.517c0,0.137-0.048,0.254-0.146,0.353
		c-0.097,0.098-0.218,0.146-0.361,0.146c-0.145,0-0.265-0.048-0.356-0.146c-0.094-0.099-0.141-0.216-0.141-0.353
		c0-0.138,0.047-0.254,0.141-0.353c0.093-0.098,0.212-0.146,0.356-0.146c0.144,0,0.266,0.049,0.361,0.146
		C118.061,62.263,118.108,62.379,118.108,62.517z"/>
	<path fill="#5C6971" d="M122.842,64.7c-0.043-0.021-0.107-0.052-0.193-0.092c-0.086-0.039-0.162-0.059-0.228-0.059
		c-0.145,0-0.28,0.041-0.412,0.123c-0.129,0.084-0.243,0.18-0.346,0.287c-0.101,0.107-0.182,0.215-0.243,0.318
		c-0.061,0.104-0.099,0.184-0.112,0.232v3.902h-0.746v-5.428h0.714v0.758c0.014-0.029,0.052-0.094,0.113-0.189
		c0.061-0.098,0.146-0.198,0.254-0.303c0.107-0.104,0.235-0.196,0.384-0.276c0.146-0.078,0.314-0.118,0.503-0.118
		c0.094,0,0.196,0.02,0.309,0.055c0.111,0.036,0.189,0.071,0.232,0.107L122.842,64.7z"/>
	<path fill="#5C6971" d="M127.005,69.432c-0.063,0.02-0.137,0.033-0.216,0.049s-0.164,0.027-0.254,0.043
		c-0.091,0.016-0.171,0.021-0.243,0.021c-0.217,0-0.397-0.032-0.547-0.098c-0.146-0.064-0.266-0.152-0.355-0.266
		c-0.092-0.111-0.155-0.239-0.194-0.383c-0.04-0.146-0.061-0.293-0.061-0.443v-3.753h-0.908v-0.616h0.908v-1.471h0.746v1.471h1.07
		v0.616h-1.07v3.677c0,0.151,0.034,0.297,0.104,0.438c0.069,0.141,0.186,0.211,0.352,0.211c0.103,0,0.213-0.021,0.336-0.06
		c0.121-0.039,0.205-0.074,0.248-0.104l0.228,0.617C127.117,69.397,127.07,69.415,127.005,69.432z"/>
	<path fill="#5C6971" d="M130.997,69.432c-0.063,0.02-0.137,0.033-0.216,0.049s-0.164,0.027-0.254,0.043
		c-0.091,0.016-0.171,0.021-0.243,0.021c-0.217,0-0.397-0.032-0.547-0.098c-0.147-0.064-0.266-0.152-0.356-0.266
		c-0.091-0.111-0.154-0.239-0.193-0.383c-0.04-0.146-0.061-0.293-0.061-0.443v-3.753h-0.909v-0.616h0.909v-1.471h0.746v1.471h1.07
		v0.616h-1.07v3.677c0,0.151,0.034,0.297,0.104,0.438c0.068,0.141,0.186,0.211,0.352,0.211c0.103,0,0.213-0.021,0.336-0.06
		c0.121-0.039,0.205-0.074,0.248-0.104l0.228,0.617C131.109,69.397,131.062,69.415,130.997,69.432z"/>
	<path fill="#5C6971" d="M132.884,66.831c0,0.217,0.027,0.447,0.081,0.691c0.055,0.246,0.14,0.475,0.255,0.688
		c0.114,0.213,0.263,0.39,0.442,0.529c0.18,0.141,0.396,0.211,0.649,0.211c0.149,0,0.301-0.016,0.447-0.049
		c0.147-0.031,0.284-0.07,0.411-0.113c0.126-0.043,0.236-0.088,0.33-0.135c0.095-0.047,0.169-0.088,0.228-0.125l0.227,0.627
		c-0.043,0.022-0.117,0.055-0.221,0.098c-0.105,0.043-0.23,0.088-0.379,0.131c-0.148,0.044-0.313,0.08-0.498,0.113
		c-0.185,0.032-0.376,0.049-0.578,0.049c-0.426,0-0.775-0.092-1.049-0.275s-0.492-0.422-0.654-0.714s-0.275-0.612-0.34-0.963
		c-0.065-0.351-0.098-0.693-0.098-1.032c0-0.268,0.043-0.559,0.129-0.876c0.088-0.315,0.215-0.61,0.385-0.881
		c0.169-0.271,0.379-0.496,0.627-0.677c0.248-0.18,0.539-0.271,0.871-0.271c0.367,0,0.677,0.087,0.93,0.259
		c0.252,0.174,0.455,0.395,0.611,0.66c0.153,0.268,0.266,0.559,0.334,0.876c0.067,0.317,0.104,0.62,0.104,0.908v0.271H132.884z
		 M135.333,65.728c-0.047-0.216-0.119-0.418-0.217-0.604c-0.097-0.188-0.225-0.349-0.383-0.48c-0.159-0.135-0.352-0.2-0.574-0.2
		c-0.209,0-0.393,0.063-0.551,0.188c-0.158,0.127-0.289,0.283-0.391,0.471c-0.101,0.188-0.179,0.388-0.231,0.602
		c-0.054,0.211-0.081,0.408-0.081,0.588h2.498C135.403,66.131,135.38,65.944,135.333,65.728z"/>
	<path fill="#5C6971" d="M143.776,69.415v-3.644c0-0.159-0.02-0.315-0.055-0.472c-0.035-0.154-0.093-0.293-0.168-0.416
		c-0.075-0.121-0.179-0.221-0.309-0.297c-0.13-0.075-0.284-0.113-0.465-0.113c-0.188,0-0.354,0.033-0.503,0.104
		c-0.148,0.068-0.273,0.15-0.379,0.248c-0.104,0.098-0.189,0.2-0.254,0.309c-0.064,0.107-0.102,0.201-0.107,0.281v4h-0.746v-3.644
		c0-0.159-0.017-0.315-0.049-0.472c-0.033-0.154-0.087-0.293-0.162-0.416c-0.076-0.121-0.178-0.221-0.303-0.297
		c-0.127-0.075-0.287-0.113-0.482-0.113c-0.172,0-0.333,0.039-0.479,0.119c-0.148,0.078-0.275,0.175-0.384,0.287
		c-0.108,0.111-0.194,0.225-0.261,0.34c-0.065,0.115-0.104,0.209-0.117,0.281v3.914h-0.746v-5.429h0.713v0.757
		c0.021-0.027,0.065-0.093,0.135-0.188c0.069-0.097,0.159-0.198,0.271-0.304c0.11-0.104,0.247-0.195,0.409-0.275
		c0.162-0.078,0.345-0.118,0.547-0.118c0.267,0,0.488,0.036,0.664,0.108c0.178,0.072,0.322,0.156,0.438,0.254
		c0.115,0.098,0.202,0.193,0.259,0.292c0.06,0.097,0.103,0.175,0.131,0.231c0.021-0.035,0.07-0.103,0.146-0.199
		c0.076-0.098,0.177-0.196,0.303-0.297c0.126-0.103,0.277-0.191,0.454-0.271c0.177-0.078,0.373-0.118,0.59-0.118
		c0.311,0,0.57,0.052,0.783,0.157c0.213,0.104,0.385,0.242,0.514,0.416c0.13,0.173,0.224,0.369,0.275,0.589
		c0.055,0.22,0.082,0.442,0.082,0.665v3.73H143.776L143.776,69.415z"/>
	<path fill="#5C6971" d="M150.608,66.561c0,0.354-0.051,0.706-0.152,1.061c-0.101,0.354-0.252,0.672-0.453,0.957
		c-0.202,0.284-0.45,0.518-0.746,0.696c-0.297,0.181-0.639,0.271-1.026,0.271c-0.108,0-0.248-0.01-0.417-0.026
		c-0.169-0.019-0.341-0.042-0.514-0.069c-0.174-0.029-0.336-0.06-0.486-0.088c-0.151-0.027-0.26-0.05-0.324-0.064V61.75h0.746v2.994
		c0.021-0.043,0.07-0.113,0.146-0.211c0.076-0.097,0.175-0.195,0.293-0.298c0.118-0.101,0.255-0.188,0.404-0.265
		c0.152-0.075,0.312-0.113,0.478-0.113c0.366,0,0.682,0.085,0.939,0.254c0.26,0.169,0.472,0.385,0.638,0.645s0.287,0.55,0.363,0.871
		C150.57,65.946,150.608,66.258,150.608,66.561z M149.829,66.561c0-0.236-0.026-0.48-0.08-0.729c-0.055-0.25-0.138-0.476-0.25-0.677
		c-0.11-0.202-0.252-0.366-0.421-0.491c-0.169-0.127-0.373-0.189-0.611-0.189c-0.144,0-0.285,0.043-0.427,0.13
		c-0.141,0.087-0.27,0.187-0.385,0.298s-0.212,0.225-0.291,0.34c-0.08,0.115-0.123,0.202-0.13,0.26v3.297
		c0.028,0.015,0.085,0.029,0.167,0.044c0.083,0.014,0.174,0.026,0.271,0.036c0.098,0.013,0.195,0.021,0.298,0.033
		c0.101,0.01,0.188,0.017,0.26,0.017c0.252,0,0.477-0.076,0.676-0.228c0.197-0.152,0.365-0.343,0.502-0.572
		c0.137-0.231,0.242-0.487,0.314-0.77C149.793,67.079,149.829,66.813,149.829,66.561z"/>
	<path fill="#5C6971" d="M152.813,66.831c0,0.217,0.026,0.447,0.082,0.691c0.054,0.246,0.139,0.475,0.254,0.688
		s0.263,0.39,0.442,0.529c0.181,0.141,0.396,0.211,0.648,0.211c0.151,0,0.301-0.016,0.449-0.049c0.146-0.031,0.284-0.07,0.41-0.113
		c0.127-0.043,0.235-0.088,0.33-0.135c0.094-0.047,0.17-0.088,0.227-0.125l0.228,0.627c-0.043,0.022-0.116,0.055-0.222,0.098
		c-0.104,0.043-0.229,0.088-0.379,0.131c-0.146,0.044-0.312,0.08-0.497,0.113c-0.184,0.032-0.376,0.049-0.578,0.049
		c-0.426,0-0.774-0.092-1.05-0.275c-0.272-0.184-0.491-0.422-0.653-0.714c-0.163-0.292-0.275-0.612-0.341-0.963
		c-0.063-0.351-0.098-0.693-0.098-1.032c0-0.268,0.043-0.559,0.13-0.876c0.087-0.315,0.214-0.61,0.384-0.881
		s0.379-0.496,0.627-0.677c0.249-0.18,0.539-0.271,0.871-0.271c0.367,0,0.678,0.087,0.93,0.259c0.252,0.174,0.456,0.395,0.611,0.66
		c0.154,0.268,0.268,0.559,0.335,0.876c0.068,0.317,0.104,0.62,0.104,0.908v0.271H152.813z M155.263,65.728
		c-0.048-0.216-0.119-0.418-0.217-0.604c-0.097-0.188-0.226-0.349-0.384-0.48c-0.158-0.135-0.35-0.2-0.573-0.2
		c-0.209,0-0.394,0.063-0.552,0.188c-0.158,0.127-0.288,0.283-0.389,0.471c-0.103,0.188-0.179,0.388-0.232,0.602
		c-0.055,0.211-0.082,0.408-0.082,0.588h2.498C155.333,66.131,155.31,65.944,155.263,65.728z"/>
	<path fill="#5C6971" d="M160.019,64.7c-0.043-0.021-0.107-0.052-0.194-0.092c-0.087-0.039-0.162-0.059-0.228-0.059
		c-0.146,0-0.281,0.041-0.41,0.123c-0.131,0.084-0.246,0.18-0.348,0.287c-0.101,0.107-0.183,0.215-0.242,0.318
		c-0.061,0.104-0.101,0.184-0.113,0.232v3.902h-0.746v-5.428h0.713v0.758c0.016-0.029,0.053-0.094,0.114-0.189
		c0.061-0.096,0.146-0.198,0.254-0.303c0.107-0.105,0.236-0.196,0.384-0.276c0.148-0.078,0.315-0.118,0.503-0.118
		c0.094,0,0.196,0.02,0.309,0.055c0.111,0.036,0.188,0.071,0.232,0.107L160.019,64.7z"/>
	<path fill="#5C6971" d="M164.638,64.517c0.027,0.037,0.067,0.09,0.118,0.162c0.051,0.071,0.1,0.161,0.146,0.266
		s0.088,0.224,0.124,0.356s0.055,0.275,0.055,0.427c0,0.274-0.047,0.532-0.141,0.772c-0.094,0.242-0.225,0.453-0.391,0.633
		c-0.166,0.181-0.363,0.322-0.595,0.429c-0.229,0.104-0.479,0.156-0.746,0.156c-0.08,0-0.164,0.015-0.254,0.043
		s-0.176,0.063-0.254,0.108c-0.08,0.043-0.146,0.096-0.201,0.156c-0.053,0.061-0.08,0.124-0.08,0.189
		c0,0.158,0.073,0.287,0.222,0.389c0.147,0.102,0.338,0.15,0.567,0.15c0.295,0,0.58,0.035,0.854,0.104
		c0.273,0.068,0.516,0.17,0.725,0.303c0.209,0.135,0.375,0.297,0.498,0.486c0.123,0.191,0.185,0.41,0.185,0.654
		c0,0.188-0.055,0.375-0.162,0.562c-0.107,0.188-0.263,0.361-0.459,0.521c-0.199,0.158-0.438,0.287-0.716,0.384
		c-0.276,0.097-0.585,0.146-0.924,0.146c-0.303,0-0.586-0.039-0.85-0.119c-0.263-0.078-0.488-0.186-0.676-0.317
		c-0.188-0.132-0.334-0.292-0.443-0.478c-0.107-0.184-0.162-0.383-0.162-0.6c0-0.209,0.058-0.395,0.168-0.557
		c0.111-0.162,0.244-0.297,0.396-0.406c0.151-0.107,0.307-0.191,0.465-0.254c0.159-0.061,0.289-0.096,0.39-0.104
		c-0.05-0.007-0.118-0.025-0.206-0.06c-0.086-0.032-0.17-0.077-0.254-0.135c-0.082-0.058-0.154-0.134-0.216-0.228
		c-0.062-0.094-0.092-0.205-0.092-0.336c0-0.086,0.027-0.171,0.087-0.254c0.057-0.083,0.125-0.156,0.205-0.222
		c0.079-0.065,0.16-0.119,0.243-0.162c0.083-0.044,0.152-0.072,0.211-0.087c-0.102-0.035-0.217-0.096-0.348-0.178
		c-0.129-0.084-0.254-0.199-0.373-0.348c-0.117-0.146-0.218-0.33-0.297-0.552c-0.079-0.22-0.119-0.483-0.119-0.795
		c0-0.229,0.05-0.457,0.146-0.681c0.097-0.225,0.229-0.424,0.4-0.602c0.169-0.176,0.366-0.318,0.594-0.427s0.471-0.162,0.729-0.162
		c0.166,0,0.322,0.017,0.472,0.048c0.146,0.033,0.254,0.061,0.317,0.082h1.535v0.529h-0.896V64.517z M164.713,70.302
		c0-0.281-0.142-0.515-0.427-0.697s-0.644-0.274-1.076-0.274c-0.18,0-0.354,0.024-0.523,0.075c-0.169,0.05-0.319,0.118-0.448,0.205
		c-0.131,0.086-0.234,0.188-0.314,0.31c-0.078,0.117-0.118,0.246-0.118,0.383s0.034,0.27,0.104,0.395
		c0.068,0.127,0.164,0.238,0.286,0.336s0.271,0.176,0.443,0.232c0.172,0.057,0.363,0.086,0.572,0.086
		c0.218,0,0.414-0.03,0.596-0.092c0.181-0.061,0.339-0.141,0.476-0.237c0.137-0.099,0.244-0.21,0.319-0.335
		C164.675,70.56,164.713,70.433,164.713,70.302z M164.323,65.728c0-0.396-0.099-0.715-0.297-0.957
		c-0.198-0.24-0.471-0.36-0.816-0.36c-0.173,0-0.33,0.034-0.471,0.106c-0.141,0.071-0.258,0.17-0.352,0.293
		c-0.095,0.122-0.166,0.263-0.217,0.421c-0.051,0.159-0.074,0.325-0.074,0.497c0,0.194,0.02,0.381,0.059,0.558
		c0.04,0.178,0.104,0.329,0.189,0.461c0.086,0.129,0.199,0.231,0.341,0.308c0.141,0.075,0.314,0.114,0.523,0.114
		c0.201,0,0.373-0.047,0.515-0.137c0.141-0.091,0.256-0.203,0.346-0.341c0.09-0.137,0.155-0.29,0.195-0.459
		C164.304,66.062,164.323,65.894,164.323,65.728z"/>
</g>
<g>
	<path fill="#5C6971" d="M78.403,53.778c0,0.527-0.08,1.02-0.238,1.477c-0.158,0.459-0.377,0.855-0.653,1.195
		c-0.277,0.338-0.607,0.605-0.99,0.801c-0.381,0.193-0.796,0.291-1.242,0.291h-1.721v-7.213h1.567c0.461,0,0.894,0.08,1.293,0.238
		s0.748,0.387,1.043,0.682s0.526,0.655,0.692,1.08C78.319,52.754,78.403,53.238,78.403,53.778z M77.592,53.778
		c0-0.439-0.064-0.832-0.193-1.178c-0.13-0.348-0.303-0.641-0.521-0.883c-0.217-0.24-0.467-0.426-0.752-0.557
		c-0.284-0.13-0.582-0.193-0.892-0.193h-0.887v5.936h0.919c0.323,0,0.629-0.08,0.914-0.242c0.284-0.162,0.53-0.385,0.739-0.666
		s0.373-0.609,0.492-0.988C77.532,54.627,77.592,54.219,77.592,53.778z"/>
	<path fill="#5C6971" d="M83.341,57.542v-0.768c-0.021,0.036-0.069,0.104-0.146,0.205c-0.075,0.102-0.175,0.202-0.298,0.303
		c-0.122,0.102-0.266,0.191-0.427,0.271c-0.162,0.08-0.342,0.119-0.535,0.119c-0.296,0-0.551-0.053-0.764-0.157
		s-0.387-0.241-0.522-0.41c-0.138-0.17-0.238-0.366-0.304-0.59c-0.064-0.224-0.098-0.454-0.098-0.69v-3.711h0.746v3.645
		c0,0.166,0.021,0.326,0.06,0.481c0.039,0.154,0.1,0.291,0.179,0.41s0.185,0.218,0.312,0.293c0.13,0.075,0.289,0.113,0.478,0.113
		c0.172,0,0.335-0.045,0.485-0.136c0.151-0.09,0.285-0.192,0.4-0.309c0.115-0.115,0.207-0.23,0.275-0.346
		c0.067-0.116,0.105-0.195,0.112-0.238v-3.915h0.746v5.429H83.341z"/>
	<path fill="#5C6971" d="M88.756,57.542v-0.768c-0.021,0.043-0.073,0.115-0.156,0.217c-0.082,0.1-0.193,0.201-0.33,0.303
		c-0.138,0.102-0.293,0.188-0.471,0.265c-0.177,0.075-0.365,0.114-0.566,0.114c-0.478,0-0.867-0.135-1.174-0.4
		c-0.308-0.266-0.459-0.643-0.459-1.124c0-0.229,0.065-0.442,0.198-0.64c0.135-0.193,0.304-0.362,0.51-0.508
		c0.205-0.145,0.429-0.267,0.671-0.367c0.239-0.102,0.466-0.174,0.676-0.217l1.059-0.237v-0.356c0-0.354-0.096-0.65-0.286-0.892
		c-0.189-0.242-0.48-0.363-0.869-0.363c-0.115,0-0.246,0.021-0.391,0.065c-0.144,0.043-0.28,0.092-0.411,0.146
		c-0.129,0.056-0.246,0.108-0.352,0.162c-0.104,0.056-0.171,0.093-0.199,0.113l-0.228-0.584c0.027-0.021,0.097-0.058,0.206-0.107
		c0.106-0.051,0.236-0.104,0.389-0.161c0.152-0.059,0.318-0.109,0.503-0.152c0.184-0.043,0.369-0.064,0.558-0.064
		c0.548,0,0.984,0.154,1.312,0.46c0.328,0.308,0.492,0.755,0.492,1.347v3.752h-0.682V57.542z M88.712,54.73l-0.907,0.194
		c-0.15,0.037-0.312,0.09-0.486,0.162c-0.173,0.072-0.33,0.158-0.471,0.26c-0.142,0.102-0.259,0.217-0.353,0.346
		c-0.094,0.131-0.141,0.271-0.141,0.422c0,0.303,0.092,0.541,0.275,0.715c0.185,0.172,0.409,0.26,0.677,0.26
		c0.166,0,0.325-0.034,0.48-0.104c0.154-0.068,0.295-0.154,0.422-0.26c0.125-0.104,0.232-0.217,0.318-0.336
		c0.087-0.118,0.147-0.232,0.184-0.34L88.712,54.73L88.712,54.73z"/>
	<path fill="#5C6971" d="M92.837,57.618c-0.13,0.035-0.249,0.055-0.356,0.055c-0.216,0-0.394-0.036-0.529-0.108
		c-0.136-0.071-0.247-0.168-0.33-0.287c-0.083-0.118-0.141-0.257-0.173-0.416c-0.032-0.157-0.049-0.323-0.049-0.497v-6.488h0.746
		v6.424c0,0.225,0.027,0.404,0.087,0.541c0.058,0.137,0.154,0.205,0.291,0.205c0.051,0,0.115-0.019,0.194-0.053
		c0.079-0.037,0.134-0.072,0.162-0.109l0.228,0.628C93.057,57.545,92.966,57.581,92.837,57.618z"/>
	<path fill="#5C6971" d="M94.794,54.958c0,0.217,0.027,0.447,0.081,0.691c0.055,0.245,0.14,0.475,0.254,0.688
		c0.115,0.213,0.264,0.39,0.443,0.529c0.18,0.141,0.396,0.211,0.649,0.211c0.149,0,0.301-0.017,0.447-0.049
		c0.147-0.031,0.284-0.07,0.411-0.113c0.126-0.043,0.236-0.088,0.33-0.135s0.169-0.089,0.228-0.125l0.227,0.627
		c-0.043,0.021-0.117,0.055-0.221,0.098c-0.105,0.043-0.23,0.086-0.379,0.131c-0.148,0.043-0.313,0.08-0.498,0.113
		c-0.185,0.031-0.376,0.049-0.578,0.049c-0.426,0-0.775-0.092-1.049-0.276s-0.492-0.422-0.654-0.713
		c-0.162-0.293-0.275-0.613-0.34-0.963c-0.065-0.351-0.099-0.693-0.099-1.033c0-0.267,0.043-0.56,0.129-0.875
		c0.089-0.317,0.216-0.61,0.386-0.881c0.169-0.271,0.379-0.496,0.627-0.677c0.248-0.18,0.539-0.271,0.871-0.271
		c0.366,0,0.677,0.087,0.93,0.26c0.252,0.174,0.455,0.394,0.611,0.66c0.153,0.268,0.266,0.559,0.334,0.875
		c0.067,0.318,0.104,0.621,0.104,0.908v0.271H94.794L94.794,54.958z M97.243,53.854c-0.047-0.217-0.119-0.418-0.217-0.605
		c-0.097-0.188-0.226-0.348-0.383-0.48c-0.159-0.135-0.352-0.2-0.574-0.2c-0.209,0-0.394,0.063-0.551,0.188
		c-0.158,0.127-0.289,0.283-0.391,0.472c-0.101,0.188-0.179,0.387-0.231,0.601c-0.054,0.213-0.081,0.409-0.081,0.59h2.498
		C97.313,54.258,97.29,54.071,97.243,53.854z"/>
	<path fill="#5C6971" d="M106.581,57.542v-3.438h-2.975v3.438h-0.789v-7.213h0.789v3.125h2.975v-3.125h0.789v7.213H106.581z"/>
	<path fill="#5C6971" d="M113.53,54.687c0,0.297-0.037,0.619-0.113,0.969c-0.076,0.351-0.195,0.675-0.361,0.974
		s-0.387,0.549-0.659,0.746c-0.274,0.199-0.609,0.297-1.006,0.297c-0.411,0-0.757-0.098-1.033-0.297
		c-0.277-0.197-0.497-0.445-0.659-0.74c-0.163-0.297-0.278-0.618-0.347-0.969c-0.069-0.35-0.103-0.677-0.103-0.979
		c0-0.244,0.039-0.521,0.118-0.832s0.206-0.604,0.378-0.881c0.174-0.277,0.396-0.512,0.666-0.703
		c0.271-0.191,0.596-0.287,0.979-0.287c0.402,0,0.741,0.094,1.016,0.281s0.494,0.418,0.66,0.691
		c0.166,0.274,0.285,0.567,0.356,0.883C113.495,54.151,113.53,54.435,113.53,54.687z M112.752,54.687
		c0-0.181-0.021-0.39-0.064-0.627c-0.043-0.237-0.118-0.465-0.228-0.681c-0.106-0.217-0.248-0.4-0.422-0.553
		c-0.173-0.15-0.389-0.227-0.647-0.227c-0.252,0-0.466,0.072-0.64,0.216c-0.172,0.146-0.312,0.323-0.422,0.535
		c-0.106,0.213-0.186,0.44-0.231,0.681c-0.048,0.242-0.07,0.461-0.07,0.654c0,0.217,0.021,0.462,0.061,0.736
		c0.039,0.272,0.109,0.531,0.211,0.772c0.101,0.241,0.238,0.445,0.416,0.61c0.177,0.166,0.401,0.249,0.677,0.249
		c0.267,0,0.487-0.083,0.665-0.249c0.177-0.165,0.316-0.369,0.421-0.61s0.178-0.5,0.217-0.772
		C112.731,55.148,112.752,54.903,112.752,54.687z"/>
	<path fill="#5C6971" d="M118.419,57.379c-0.091,0.043-0.203,0.086-0.336,0.131c-0.133,0.043-0.283,0.08-0.449,0.113
		c-0.164,0.031-0.338,0.049-0.519,0.049c-0.39,0-0.719-0.088-0.989-0.26c-0.27-0.174-0.487-0.399-0.653-0.682
		c-0.166-0.281-0.287-0.602-0.362-0.957c-0.075-0.357-0.113-0.72-0.113-1.088c0-0.303,0.05-0.613,0.151-0.936
		c0.101-0.32,0.243-0.61,0.427-0.869c0.186-0.26,0.407-0.476,0.671-0.646c0.263-0.169,0.562-0.254,0.894-0.254
		c0.157,0,0.312,0.015,0.465,0.043c0.149,0.029,0.286,0.063,0.403,0.104c0.119,0.039,0.222,0.078,0.304,0.119
		c0.084,0.039,0.136,0.069,0.158,0.092l-0.229,0.627c-0.021-0.021-0.072-0.053-0.151-0.092c-0.08-0.039-0.174-0.082-0.28-0.125
		c-0.108-0.043-0.223-0.078-0.342-0.107c-0.118-0.029-0.229-0.043-0.328-0.043c-0.218,0-0.41,0.064-0.579,0.193
		c-0.169,0.131-0.312,0.299-0.428,0.504c-0.114,0.205-0.203,0.431-0.266,0.676c-0.061,0.244-0.092,0.482-0.092,0.713
		c0,0.281,0.024,0.564,0.076,0.85c0.05,0.285,0.131,0.539,0.241,0.762c0.112,0.226,0.257,0.406,0.435,0.548
		c0.176,0.141,0.387,0.211,0.633,0.211c0.115,0,0.233-0.015,0.356-0.043c0.122-0.029,0.238-0.065,0.351-0.109
		c0.112-0.043,0.213-0.088,0.304-0.135s0.157-0.088,0.2-0.124l0.228,0.639C118.567,57.304,118.509,57.336,118.419,57.379z"/>
	<path fill="#5C6971" d="M123.226,57.542v-3.645c0-0.145-0.023-0.293-0.07-0.447c-0.047-0.156-0.113-0.297-0.199-0.423
		c-0.087-0.126-0.197-0.229-0.33-0.308c-0.134-0.08-0.287-0.119-0.46-0.119s-0.337,0.041-0.491,0.124
		c-0.155,0.083-0.293,0.181-0.411,0.292s-0.215,0.225-0.286,0.34c-0.071,0.116-0.112,0.206-0.118,0.271v3.914h-0.746v-7.668h0.746
		v2.996c0.014-0.043,0.059-0.113,0.135-0.211s0.176-0.195,0.303-0.298c0.126-0.103,0.271-0.188,0.433-0.266
		c0.163-0.075,0.338-0.113,0.524-0.113c0.288,0,0.541,0.054,0.758,0.157c0.216,0.104,0.395,0.242,0.534,0.416
		c0.141,0.173,0.247,0.369,0.319,0.589c0.072,0.221,0.107,0.442,0.107,0.666v3.729h-0.747V57.542z"/>
	<path fill="#5C6971" d="M129.011,56.061c0,0.23-0.048,0.445-0.142,0.645c-0.094,0.198-0.221,0.369-0.383,0.514
		s-0.354,0.256-0.574,0.335c-0.219,0.079-0.451,0.118-0.697,0.118c-0.216,0-0.416-0.014-0.6-0.043
		c-0.184-0.028-0.348-0.064-0.492-0.107c-0.144-0.043-0.269-0.086-0.373-0.13c-0.104-0.044-0.186-0.079-0.243-0.108l0.229-0.604
		c0.035,0.021,0.106,0.057,0.216,0.104c0.109,0.047,0.232,0.092,0.373,0.135s0.29,0.082,0.448,0.119
		c0.159,0.034,0.303,0.053,0.434,0.053c0.273,0,0.515-0.078,0.719-0.236c0.205-0.159,0.31-0.379,0.31-0.66
		c0-0.158-0.064-0.301-0.189-0.428c-0.127-0.125-0.284-0.248-0.477-0.367s-0.398-0.238-0.621-0.357
		c-0.224-0.119-0.432-0.246-0.622-0.383c-0.189-0.137-0.35-0.289-0.476-0.455c-0.127-0.166-0.189-0.358-0.189-0.584
		c0-0.236,0.047-0.457,0.142-0.658c0.094-0.203,0.222-0.375,0.384-0.52s0.348-0.256,0.558-0.336c0.209-0.079,0.432-0.119,0.67-0.119
		c0.146,0,0.29,0.016,0.438,0.043c0.147,0.029,0.283,0.062,0.405,0.098c0.122,0.037,0.228,0.074,0.312,0.113
		c0.087,0.04,0.148,0.074,0.185,0.104l-0.228,0.595c-0.028-0.027-0.084-0.064-0.168-0.107c-0.082-0.043-0.178-0.084-0.285-0.125
		c-0.109-0.039-0.223-0.074-0.342-0.103s-0.229-0.044-0.33-0.044c-0.273,0-0.508,0.085-0.702,0.255
		c-0.194,0.169-0.292,0.396-0.292,0.677c0,0.157,0.064,0.307,0.195,0.442c0.129,0.137,0.289,0.267,0.479,0.39
		c0.191,0.122,0.4,0.243,0.627,0.361c0.229,0.119,0.438,0.247,0.627,0.384c0.191,0.138,0.353,0.287,0.482,0.449
		C128.946,55.677,129.011,55.858,129.011,56.061z"/>
	<path fill="#5C6971" d="M133.808,57.379c-0.091,0.043-0.201,0.086-0.335,0.131c-0.135,0.043-0.282,0.08-0.448,0.113
		c-0.166,0.031-0.34,0.049-0.521,0.049c-0.389,0-0.719-0.088-0.988-0.26c-0.271-0.174-0.489-0.399-0.654-0.682
		c-0.166-0.281-0.286-0.602-0.362-0.957c-0.076-0.357-0.112-0.72-0.112-1.088c0-0.303,0.051-0.613,0.15-0.936
		c0.101-0.321,0.243-0.61,0.427-0.869c0.185-0.26,0.407-0.476,0.672-0.646c0.263-0.169,0.56-0.254,0.892-0.254
		c0.158,0,0.313,0.015,0.465,0.043c0.152,0.029,0.287,0.063,0.406,0.104c0.119,0.039,0.22,0.078,0.303,0.119
		c0.082,0.039,0.135,0.069,0.156,0.092l-0.228,0.627c-0.021-0.021-0.071-0.053-0.151-0.092c-0.078-0.039-0.172-0.082-0.28-0.125
		s-0.222-0.078-0.341-0.107s-0.229-0.043-0.33-0.043c-0.216,0-0.409,0.064-0.578,0.193c-0.17,0.131-0.312,0.299-0.428,0.504
		s-0.203,0.431-0.266,0.676c-0.062,0.244-0.092,0.482-0.092,0.713c0,0.281,0.025,0.564,0.075,0.85
		c0.051,0.285,0.132,0.539,0.244,0.762c0.111,0.226,0.256,0.406,0.432,0.548c0.179,0.141,0.39,0.211,0.633,0.211
		c0.115,0,0.234-0.015,0.357-0.043c0.123-0.029,0.239-0.065,0.352-0.109c0.111-0.043,0.214-0.088,0.304-0.135
		s0.155-0.088,0.198-0.124l0.229,0.639C133.958,57.304,133.897,57.336,133.808,57.379z"/>
	<path fill="#5C6971" d="M138.616,57.542v-3.645c0-0.145-0.023-0.293-0.07-0.447c-0.047-0.156-0.113-0.297-0.2-0.423
		s-0.195-0.229-0.329-0.308c-0.135-0.08-0.286-0.119-0.46-0.119s-0.338,0.041-0.492,0.124s-0.291,0.181-0.41,0.292
		s-0.215,0.225-0.287,0.34c-0.072,0.116-0.111,0.206-0.119,0.271v3.914h-0.746v-7.668h0.746v2.996
		c0.016-0.043,0.061-0.113,0.135-0.211c0.076-0.098,0.179-0.195,0.305-0.298s0.271-0.188,0.433-0.266
		c0.162-0.075,0.336-0.113,0.524-0.113c0.288,0,0.54,0.054,0.757,0.157s0.395,0.242,0.535,0.416c0.14,0.173,0.247,0.369,0.317,0.589
		c0.072,0.221,0.109,0.442,0.109,0.666v3.729h-0.747V57.542z"/>
	<path fill="#5C6971" d="M144.385,57.542v-0.768c-0.021,0.036-0.069,0.104-0.146,0.205s-0.176,0.202-0.298,0.303
		c-0.122,0.102-0.266,0.191-0.427,0.271c-0.162,0.08-0.342,0.119-0.535,0.119c-0.297,0-0.551-0.053-0.764-0.157
		s-0.388-0.241-0.523-0.41c-0.137-0.17-0.238-0.366-0.303-0.59s-0.099-0.454-0.099-0.69v-3.711h0.746v3.645
		c0,0.166,0.021,0.326,0.061,0.481c0.04,0.154,0.099,0.291,0.179,0.41c0.079,0.119,0.184,0.218,0.312,0.293
		c0.131,0.075,0.288,0.113,0.477,0.113c0.173,0,0.336-0.045,0.485-0.136c0.152-0.09,0.285-0.192,0.4-0.309
		c0.115-0.115,0.207-0.23,0.275-0.346c0.067-0.116,0.106-0.195,0.112-0.238v-3.915h0.747v5.429H144.385z"/>
	<path fill="#5C6971" d="M148.511,57.618c-0.13,0.035-0.248,0.055-0.356,0.055c-0.216,0-0.394-0.036-0.53-0.108
		c-0.136-0.071-0.246-0.168-0.33-0.287c-0.082-0.118-0.141-0.257-0.172-0.416c-0.033-0.157-0.049-0.323-0.049-0.497v-6.488h0.746
		v6.424c0,0.225,0.028,0.404,0.086,0.541c0.059,0.137,0.155,0.205,0.292,0.205c0.051,0,0.115-0.019,0.194-0.053
		c0.08-0.037,0.134-0.072,0.162-0.109l0.228,0.628C148.731,57.545,148.641,57.581,148.511,57.618z"/>
	<path fill="#5C6971" d="M150.469,54.958c0,0.217,0.025,0.447,0.08,0.691c0.056,0.245,0.14,0.475,0.255,0.688
		c0.114,0.213,0.264,0.39,0.442,0.529c0.179,0.141,0.396,0.211,0.648,0.211c0.151,0,0.301-0.017,0.448-0.049
		c0.148-0.031,0.285-0.07,0.411-0.113s0.235-0.088,0.329-0.135s0.17-0.089,0.229-0.125l0.228,0.627
		c-0.043,0.021-0.117,0.055-0.223,0.098c-0.104,0.043-0.23,0.086-0.378,0.131c-0.147,0.043-0.313,0.08-0.497,0.113
		c-0.185,0.031-0.377,0.049-0.578,0.049c-0.426,0-0.775-0.092-1.05-0.276s-0.491-0.422-0.653-0.713
		c-0.163-0.293-0.276-0.613-0.342-0.963c-0.064-0.351-0.097-0.693-0.097-1.033c0-0.267,0.043-0.56,0.13-0.875
		c0.086-0.317,0.214-0.61,0.384-0.881c0.169-0.271,0.378-0.496,0.627-0.677c0.249-0.18,0.539-0.271,0.87-0.271
		c0.368,0,0.678,0.087,0.93,0.26c0.253,0.174,0.457,0.394,0.611,0.66c0.154,0.268,0.268,0.559,0.336,0.875
		c0.067,0.318,0.103,0.621,0.103,0.908v0.271H150.469L150.469,54.958z M152.918,53.854c-0.047-0.217-0.119-0.418-0.216-0.605
		c-0.098-0.188-0.227-0.348-0.385-0.48s-0.351-0.2-0.572-0.2c-0.209,0-0.394,0.063-0.552,0.188c-0.159,0.127-0.288,0.283-0.39,0.472
		c-0.103,0.188-0.179,0.387-0.232,0.601c-0.054,0.213-0.081,0.409-0.081,0.59h2.498C152.988,54.258,152.965,54.071,152.918,53.854z"
		/>
</g>
<g>
	<g>
		<path fill="#E1061C" d="M27.372,14.918H1.066C0.478,14.918,0,15.396,0,15.982v26.306c0,0.59,0.479,1.067,1.066,1.067h13.157V31.37
			c0-0.587,0.475-1.541,1.063-2.132l12.084-12.084c0.589-0.59,1.068-0.59,1.068,0v-1.172C28.44,15.396,27.961,14.918,27.372,14.918"
			/>
		<rect x="0" y="14.922" fill="none" width="28.44" height="28.43"/>
	</g>
</g>
<g>
	<g>
		<path fill="#E1061C" d="M31.984,14.918h13.154V0.441c0-0.588-0.482-0.588-1.069,0L31.984,12.527
			c-0.589,0.591-1.065,1.545-1.065,2.134v1.321C30.919,15.396,31.396,14.918,31.984,14.918"/>
		<rect x="30.918" y="0.002" fill="none" width="14.222" height="15.98"/>
	</g>
</g>
<g opacity="0.8">
	<g>
		<path fill="#5C6971" d="M58.291,14.918H45.14v11.83c0,0.587-0.483,1.544-1.07,2.132L31.984,40.967
			c-0.589,0.589-1.066,0.589-1.066,0v1.32c0,0.59,0.479,1.067,1.066,1.067h26.307c0.586,0,1.066-0.478,1.066-1.067V15.982
			C59.357,15.396,58.877,14.918,58.291,14.918"/>
		<rect x="30.918" y="14.922" fill="none" width="28.439" height="28.43"/>
	</g>
</g>
<g>
	<g>
		<path fill="#E1061C" d="M31.984,40.967L44.069,28.88c0.587-0.588,1.069-1.545,1.069-2.132v-11.83H31.984
			c-0.589,0-1.065,0.478-1.065,1.066v24.981C30.919,41.556,31.396,41.556,31.984,40.967"/>
		<rect x="30.918" y="14.922" fill="none" width="14.222" height="26.491"/>
	</g>
</g>
<g opacity="0.6">
	<g>
		<path fill="#5C6971" d="M31.984,40.967L44.069,28.88c0.587-0.588,1.069-1.545,1.069-2.132v-11.83H31.984
			c-0.589,0-1.065,0.478-1.065,1.066v24.981C30.919,41.556,31.396,41.556,31.984,40.967"/>
		<rect x="30.918" y="14.922" fill="none" width="14.222" height="26.491"/>
	</g>
</g>
<g opacity="0.8">
	<g>
		<path fill="#5C6971" d="M27.372,43.354H14.224v14.323c0,0.588,0.475,0.588,1.063,0L27.372,45.59
			c0.589-0.588,1.068-1.541,1.068-2.133V42.29C28.44,42.877,27.961,43.354,27.372,43.354"/>
		<rect x="14.223" y="42.292" fill="none" width="14.218" height="15.83"/>
	</g>
</g>
<g>
	<g>
		<path fill="#E1061C" d="M27.372,17.154L15.288,29.238c-0.59,0.591-1.063,1.545-1.063,2.132v11.984h13.147
			c0.589,0,1.068-0.477,1.068-1.066V17.154C28.44,16.563,27.961,16.564,27.372,17.154"/>
		<rect x="14.223" y="16.712" fill="none" width="14.218" height="26.64"/>
	</g>
</g>
<g opacity="0.6">
	<g>
		<path fill="#5C6971" d="M27.372,17.154L15.288,29.238c-0.59,0.591-1.063,1.545-1.063,2.132v11.984h13.147
			c0.589,0,1.068-0.477,1.068-1.066V17.154C28.44,16.563,27.961,16.564,27.372,17.154"/>
		<rect x="14.223" y="16.712" fill="none" width="14.218" height="26.64"/>
	</g>
</g>
<path fill="#E1061C" d="M94.554,28.53c0,2.132-0.308,4.106-0.915,5.924c-0.612,1.819-1.475,3.39-2.583,4.712
	c-1.107,1.319-2.458,2.35-4.055,3.09c-1.593,0.738-3.37,1.104-5.33,1.104h-7.125c-0.312,0-0.562-0.098-0.746-0.295
	c-0.185-0.2-0.275-0.456-0.275-0.769V16c0-0.313,0.092-0.568,0.275-0.765c0.188-0.201,0.434-0.302,0.746-0.302h7.083
	c1.933,0,3.695,0.326,5.285,0.982c1.597,0.652,2.955,1.576,4.076,2.77c1.123,1.195,1.998,2.621,2.623,4.285
	C94.241,24.631,94.554,26.486,94.554,28.53 M89.383,28.53c0-1.365-0.171-2.64-0.511-3.817c-0.344-1.183-0.848-2.203-1.518-3.055
	c-0.666-0.854-1.475-1.529-2.412-2.027c-0.939-0.498-2.007-0.746-3.203-0.746h-3.201v20.529h2.947c1.192,0,2.272-0.271,3.244-0.812
	c0.967-0.541,1.799-1.294,2.497-2.261c0.695-0.969,1.229-2.115,1.601-3.435C89.196,31.581,89.383,30.123,89.383,28.53"/>
<path fill="#E1061C" d="M118.951,43.066c-0.198,0.197-0.451,0.295-0.765,0.295h-2.933c-0.313,0-0.562-0.098-0.741-0.297
	c-0.185-0.198-0.278-0.454-0.278-0.769v-11.69h-9.843v11.69c0,0.313-0.1,0.569-0.297,0.769s-0.455,0.297-0.766,0.297h-2.933
	c-0.312,0-0.56-0.098-0.744-0.295c-0.182-0.2-0.276-0.456-0.276-0.769V16c0-0.313,0.096-0.568,0.276-0.765
	c0.186-0.201,0.433-0.302,0.744-0.302h2.933c0.311,0,0.567,0.101,0.766,0.302c0.197,0.196,0.297,0.451,0.297,0.765v10.437h9.843V16
	c0-0.313,0.095-0.568,0.278-0.765c0.181-0.201,0.428-0.302,0.741-0.302h2.933c0.312,0,0.565,0.101,0.765,0.302
	c0.198,0.196,0.3,0.451,0.3,0.765v26.299C119.251,42.61,119.149,42.866,118.951,43.066"/>
<path fill="#5C6971" d="M142.337,35.18c0,1.277-0.258,2.427-0.77,3.449c-0.511,1.024-1.213,1.885-2.111,2.584
	c-0.894,0.692-1.938,1.227-3.131,1.599c-1.193,0.367-2.457,0.55-3.791,0.55h-6.525c-0.198,0-0.369-0.07-0.51-0.209
	c-0.145-0.143-0.215-0.314-0.215-0.512V15.619c0-0.2,0.07-0.363,0.215-0.493c0.141-0.128,0.312-0.192,0.51-0.192h7.039
	c1.111,0,2.185,0.145,3.223,0.426c1.038,0.284,1.947,0.721,2.73,1.301c0.785,0.584,1.405,1.322,1.877,2.218
	c0.472,0.892,0.705,1.95,0.705,3.173c0,0.766-0.174,1.498-0.515,2.195c-0.342,0.693-0.771,1.319-1.28,1.873
	c-0.515,0.555-1.078,1.022-1.689,1.404c-0.613,0.386-1.204,0.663-1.772,0.832c0.793,0.143,1.555,0.405,2.278,0.79
	c0.726,0.386,1.363,0.872,1.92,1.472c0.552,0.595,0.992,1.283,1.318,2.066C142.169,33.464,142.337,34.297,142.337,35.18
	 M138.419,22.171c0-1.448-0.5-2.599-1.496-3.451c-0.998-0.851-2.291-1.276-3.885-1.276h-4.649v9.84h4.522
	c0.711,0,1.395-0.125,2.051-0.383c0.652-0.257,1.234-0.611,1.748-1.066c0.513-0.452,0.922-0.993,1.238-1.617
	C138.259,23.593,138.419,22.91,138.419,22.171 M139.106,35.057c0-1.648-0.562-2.949-1.687-3.898c-1.125-0.955-2.584-1.43-4.379-1.43
	h-4.653v11.128h4.653c0.826,0,1.608-0.142,2.35-0.429c0.738-0.282,1.389-0.682,1.941-1.192c0.558-0.512,0.99-1.12,1.301-1.831
	C138.952,36.692,139.106,35.91,139.106,35.057"/>
<path fill="#5C6971" d="M167.579,42.639c-0.057,0.197-0.156,0.371-0.298,0.514c-0.144,0.139-0.312,0.209-0.513,0.209h-2.131
	c-0.197,0-0.38-0.07-0.535-0.209c-0.155-0.143-0.261-0.316-0.319-0.514l-4.712-23.827l-4.631,23.827
	c-0.056,0.197-0.164,0.371-0.318,0.514c-0.156,0.139-0.336,0.209-0.534,0.209h-2.132c-0.194,0-0.375-0.07-0.531-0.209
	c-0.157-0.143-0.264-0.316-0.321-0.514l-5.472-27.023c-0.056-0.199-0.021-0.363,0.105-0.492c0.131-0.125,0.295-0.189,0.492-0.189
	h1.791c0.455,0,0.739,0.227,0.853,0.682l4.276,23.869l4.631-23.869c0.111-0.455,0.398-0.682,0.852-0.682h2.132
	c0.43,0,0.697,0.227,0.812,0.682l4.669,23.869l4.235-23.869c0.115-0.455,0.385-0.682,0.812-0.682h1.705
	c0.197,0,0.353,0.064,0.471,0.189c0.112,0.129,0.142,0.293,0.084,0.492L167.579,42.639z"/>
</svg>
